PathFileType	4	(X/Y/Z)	C:\Users\Basilio\Documents\Thesis Gigler\squatting_fais\c3dfiles\076\SLS_back_pre3\markers_experimental.trc
DataRate	CameraRate	NumFrames	NumMarkers	Units	OrigDataRate	OrigDataStartFrame	OrigNumFrames
200.000000	200.000000	4	61	mm	200.000000	1107	1772
Frame#	Time	FHD			LBHD			RBHD			C7			T10			CLAV			LSHO			LUUPA			LMUPA			LDUPA			LLEP			LMEP			LRAD			LUL			LRFIN			RSHO			RUPA1			RMUPA			RDUPA			RLEP			RMEP			RRAD			RUL			RUFIN			LASI			RASI			USACR			LSACR			RSACR			LTHI1			LTHI2			LTHI3			LTHI4			LLFC			LMFC			LTIB1			LTIB2			LTIB3			LTIB4			LLMAL			LMMAL			LHEE			LMT1			LMT2			LMT5			RTHI			RTHI2			RTHI3			RTHI4			RLFC			RMFC			RTIB1			RTIB2			RTIB3			RTIB4			RLMAL			RMMAL			RHEE			RMT1			RMT2			RMT5			
		X1	Y1	Z1	X2	Y2	Z2	X3	Y3	Z3	X4	Y4	Z4	X5	Y5	Z5	X6	Y6	Z6	X7	Y7	Z7	X8	Y8	Z8	X9	Y9	Z9	X10	Y10	Z10	X11	Y11	Z11	X12	Y12	Z12	X13	Y13	Z13	X14	Y14	Z14	X15	Y15	Z15	X16	Y16	Z16	X17	Y17	Z17	X18	Y18	Z18	X19	Y19	Z19	X20	Y20	Z20	X21	Y21	Z21	X22	Y22	Z22	X23	Y23	Z23	X24	Y24	Z24	X25	Y25	Z25	X26	Y26	Z26	X27	Y27	Z27	X28	Y28	Z28	X29	Y29	Z29	X30	Y30	Z30	X31	Y31	Z31	X32	Y32	Z32	X33	Y33	Z33	X34	Y34	Z34	X35	Y35	Z35	X36	Y36	Z36	X37	Y37	Z37	X38	Y38	Z38	X39	Y39	Z39	X40	Y40	Z40	X41	Y41	Z41	X42	Y42	Z42	X43	Y43	Z43	X44	Y44	Z44	X45	Y45	Z45	X46	Y46	Z46	X47	Y47	Z47	X48	Y48	Z48	X49	Y49	Z49	X50	Y50	Z50	X51	Y51	Z51	X52	Y52	Z52	X53	Y53	Z53	X54	Y54	Z54	X55	Y55	Z55	X56	Y56	Z56	X57	Y57	Z57	X58	Y58	Z58	X59	Y59	Z59	X60	Y60	Z60	X61	Y61	Z61	

1108	5.535	-21.36494636535645	1289.568481445313	-1002.315673828125	-171.5424957275391	1234.741455078125	-1092.055297851563	-150.8554077148438	1238.950805664063	-941.357604980469	-226.3735961914063	1152.626220703125	-1005.872680664063	-419.515106201172	911.673034667969	-1001.316589355469	-138.6165008544922	1031.082763671875	-1018.936096191406	-184.3787384033203	1108.40380859375	-1159.388793945313	-69.12108612060548	1062.633178710938	-1268.926147460938	-28.93079566955567	1071.106201171875	-1240.965209960938	-9.06796169281006	1052.9765625	-1296.779174804688	36.01524734497071	1031.103515625	-1321.433227539063	47.75616073608399	964.3689575195315	-1278.643310546875	288.6478881835938	1046.276000976563	-1300.781005859375	279.7970275878907	1050.804565429688	-1365.823486328125	369.1198730468751	1067.318603515625	-1311.048706054688	-166.7920074462891	1097.8466796875	-874.7832641601565	-51.67315673828126	1029.71826171875	-775.3628540039065	-16.92437553405762	1057.875610351563	-795.5200195312502	16.48023223876953	1014.635314941406	-767.2166137695314	84.76942443847658	1011.749694824219	-767.1289062500001	85.18836212158205	960.1533813476565	-825.2388305664065	327.6260375976563	1020.685852050781	-832.0074462890627	321.9455261230469	1018.512878417969	-766.0805664062501	403.6896057128907	1037.936889648438	-821.4299926757815	-364.0394592285157	707.3146972656251	-1119.694702148438	-373.7962036132813	664.1079711914064	-906.8337402343752	-488.0503845214845	819.9073486328127	-998.6094970703127	-511.3923950195314	803.4710693359377	-1029.258422851563	-509.6262207031251	793.003356933594	-972.8911132812502	-400.6531372070314	624.4055175781251	-1202.240966796875	-322.9031372070313	593.4459838867189	-1196.728393554688	-293.0041809082032	624.2667846679689	-1172.996337890625	-304.3835754394532	534.0175781250001	-1191.49951171875	-197.4519348144532	420.839324951172	-1156.67236328125	-187.7788696289063	437.1311035156251	-1046.105712890625	-207.1259765625001	298.5972290039063	-1052.542114257813	-246.0628814697266	239.5385131835938	-1107.178955078125	-221.1485137939454	243.4558410644532	-1066.381103515625	-273.8145141601563	195.0865936279297	-1022.356018066406	-378.2291259765626	105.0003890991211	-1058.478393554688	-349.1579589843751	121.4543685913086	-978.5249023437502	-440.7089233398439	96.03000640869143	-1007.140686035156	-239.475082397461	51.50417327880861	-991.0440673828127	-234.6828613281251	49.93193817138673	-1030.45556640625	-259.8357849121094	44.43658828735352	-1080.116333007813	-483.3236083984376	442.7879638671876	-862.2075195312502	-451.2053833007814	382.2756347656251	-868.6604614257815	-418.1620178222657	380.5715942382813	-879.578552246094	-490.4218750000001	311.4083557128907	-889.9468994140627	-499.4897460937501	271.3273010253907	-902.2446899414065	-492.0547485351564	269.8747558593751	-1016.564758300781	-612.3116455078126	214.3536987304688	-935.7678833007815	-693.1549072265626	282.3286132812501	-909.552673339844	-695.0966796875001	238.0529022216797	-923.4199218750002	-738.2001953125001	229.5889434814454	-963.9128417968752	-877.3338012695315	287.7498779296876	-935.175964355469	-855.6533813476565	273.6212158203126	-1017.465515136719	-888.7393188476565	351.9923706054688	-973.7754516601565	-931.285339355469	158.9366149902344	-1032.243896484375	-935.2127685546877	144.6122589111328	-986.6303710937502	-957.6763916015627	168.1475982666016	-933.4990844726565	
1109	5.54	-21.49086570739746	1289.9541015625	-1002.371704101563	-172.3661651611328	1234.595092773438	-1091.678833007813	-150.97998046875	1239.286743164063	-941.3837890625002	-226.494613647461	1152.894897460938	-1005.890075683594	-419.3476562500001	911.8762207031252	-1001.3701171875	-138.6512603759766	1031.42431640625	-1018.938659667969	-184.4204559326172	1108.683227539063	-1159.425170898438	-69.10581970214845	1062.954956054688	-1268.861694335938	-28.9041862487793	1071.456909179688	-1240.966552734375	-8.99111843109131	1053.426879882813	-1296.781005859375	35.97966003417969	1031.45947265625	-1321.500854492188	48.07334899902345	964.8365478515627	-1278.670288085938	288.6940307617188	1047.00830078125	-1300.598022460938	279.7958374023438	1051.451782226563	-1365.877563476563	369.1050415039063	1068.078002929688	-1310.972290039063	-166.8033905029297	1098.257568359375	-874.8215942382815	-51.73983764648439	1030.109619140625	-775.363464355469	-17.00817489624024	1058.33447265625	-795.4923095703127	16.54406929016114	1015.186096191406	-767.1970214843751	84.74298095703126	1012.331176757813	-767.1365356445314	85.1948928833008	960.8077392578127	-825.1533203125002	327.7864990234376	1021.511413574219	-831.8442993164065	321.8751831054688	1019.267761230469	-765.9772338867189	403.7878417968751	1039.023681640625	-821.232604980469	-364.1698913574219	707.2420043945314	-1119.8056640625	-373.6629333496094	664.2853393554689	-906.9050903320315	-487.8496093750001	820.1337890625002	-998.5578613281252	-511.2703552246095	803.6093750000002	-1029.238403320313	-509.3531494140626	793.2448730468752	-972.8476562500002	-400.3703613281251	624.5117797851564	-1202.20166015625	-322.7797851562501	593.5149536132814	-1196.761352539063	-292.9136657714844	624.3386230468751	-1172.9189453125	-304.2316284179688	534.0693359375001	-1191.476684570313	-197.4558258056641	420.8449096679689	-1156.724365234375	-187.6957702636719	437.1170959472657	-1046.1181640625	-207.1056823730469	298.6003417968751	-1052.48974609375	-246.189437866211	239.4421844482422	-1107.119140625	-221.1240692138672	243.4745483398438	-1066.373168945313	-273.8144531250001	195.0869598388672	-1022.356567382813	-378.2522583007813	105.052978515625	-1058.47509765625	-349.1636962890626	121.4520492553711	-978.5070800781252	-440.7158813476564	96.0217208862305	-1007.15087890625	-239.4929656982422	51.56599807739259	-991.0750732421877	-234.6896514892579	49.91902923583986	-1030.417114257813	-259.1994323730469	44.20024871826173	-1079.87939453125	-483.2391967773439	442.9242553710939	-862.149841308594	-451.1033935546876	382.4644470214844	-868.5510864257815	-418.0301208496095	380.7900085449219	-879.449890136719	-490.2989807128907	311.6408081054688	-889.8485107421877	-499.4684448242189	271.4758300781251	-902.2025146484377	-491.9931030273439	270.0480041503907	-1016.415588378906	-612.2929077148439	214.5568389892579	-935.7578125000002	-693.1625366210939	282.4664916992188	-909.5576171875002	-695.0524902343751	238.2329254150391	-923.4770507812502	-738.1167602539064	229.7630157470704	-963.9440917968752	-877.3333129882815	287.8201904296876	-935.3262329101565	-855.5564575195315	273.7082519531251	-1017.598205566406	-888.7291259765627	352.0720214843751	-973.931335449219	-931.0955200195315	158.8909759521485	-1032.445190429688	-935.405456542969	144.6101989746094	-987.2088012695315	-957.6134033203127	168.1566467285157	-933.7002563476565	
1110	5.545	-21.58889961242676	1290.365112304688	-1002.360900878906	-172.3684539794922	1235.024536132813	-1091.623657226563	-151.0548858642578	1239.68359375	-941.4788208007815	-226.5589599609376	1153.214233398438	-1005.942199707031	-419.2519836425782	912.1094360351565	-1001.387268066406	-138.5337982177735	1031.78662109375	-1018.957153320313	-184.45361328125	1108.964111328125	-1159.462158203125	-69.10853576660158	1063.35546875	-1268.90478515625	-28.94223785400391	1071.883544921875	-1241.013671875	-9.041805267333986	1053.8779296875	-1296.70751953125	35.94554519653321	1031.911865234375	-1321.509887695313	48.25210189819337	965.330993652344	-1278.470703125	288.7539978027344	1047.67236328125	-1300.646118164063	279.6367492675782	1052.19775390625	-1365.932373046875	369.1398620605469	1068.959350585938	-1310.900512695313	-166.8432769775391	1098.62646484375	-874.8369140625002	-51.8202247619629	1030.344848632813	-775.5127563476565	-17.18427467346192	1058.82373046875	-795.5336914062502	16.44382858276368	1015.638122558594	-767.1928100585939	84.81526184082033	1012.97802734375	-767.2031860351564	85.24744415283205	961.341735839844	-825.163757324219	327.7212829589844	1022.265258789063	-831.7962646484377	321.8798522949219	1020.109802246094	-765.8137817382814	403.8028259277345	1040.0166015625	-821.037292480469	-364.2622375488282	707.1499023437501	-1119.852661132813	-373.4976806640626	664.4899902343751	-906.8935546875002	-487.6828002929689	820.2962036132815	-998.5728759765627	-511.1159973144532	803.744323730469	-1029.174438476563	-509.182098388672	793.5029907226565	-972.8045043945315	-400.3851318359376	624.6876831054689	-1202.247802734375	-322.6511840820313	593.6762695312501	-1196.8466796875	-292.8366088867188	624.3914184570314	-1172.948486328125	-304.0933227539063	534.1190185546876	-1191.36376953125	-197.3391571044922	420.7684326171876	-1156.704223632813	-187.6318969726563	437.1346740722657	-1046.149780273438	-207.1172027587891	298.6179809570313	-1052.526245117188	-246.0933532714844	239.4710083007813	-1107.139526367188	-221.1067962646485	243.4807434082032	-1066.361572265625	-273.8189086914063	195.0943603515626	-1022.355651855469	-378.2208862304688	105.0514678955078	-1058.465209960938	-349.1361999511719	121.3996124267578	-978.523376464844	-440.6806640625001	96.03027343750003	-1007.134155273438	-239.4465026855469	51.61146545410158	-991.0354614257815	-234.7445220947266	49.8852005004883	-1030.47705078125	-259.8554382324219	44.46121978759766	-1080.118530273438	-483.1166076660157	443.2132873535157	-862.0504150390627	-450.9893798828126	382.7741088867188	-868.4302368164065	-417.9592590332032	380.9825439453126	-879.2664794921877	-490.2657165527345	311.8203735351563	-889.7312011718752	-499.4193420410157	271.7235717773438	-902.1528320312502	-491.8524169921876	270.2581176757813	-1016.320007324219	-612.3117675781251	214.666976928711	-935.7727661132815	-693.1128540039064	282.5964660644532	-909.6140747070315	-695.0208740234376	238.3940582275391	-923.398620605469	-738.0252685546876	229.8127746582032	-963.9878540039065	-877.236511230469	287.9053344726563	-935.5242919921877	-855.4409179687502	273.7029113769532	-1017.678466796875	-888.673522949219	352.0948486328126	-974.111022949219	-930.961853027344	158.9273681640625	-1032.590576171875	-934.9375000000002	144.6189880371094	-987.059753417969	-957.5262451171877	168.2245788574219	-933.880554199219	
1111	5.55	-21.73900222778321	1290.871459960938	-1002.431640625	-172.3640747070313	1235.384521484375	-1091.74169921875	-151.1732482910157	1240.078491210938	-941.484558105469	-226.5416259765626	1153.569946289063	-1006.039428710938	-419.1058654785157	912.3682250976565	-1001.380432128906	-138.4485473632813	1032.19091796875	-1019.012329101563	-184.6331787109375	1109.399536132813	-1159.58544921875	-69.09214782714845	1063.916381835938	-1268.956909179688	-28.97593116760255	1072.37744140625	-1241.0732421875	-8.933844566345217	1054.364135742188	-1296.70068359375	35.98799133300782	1032.3603515625	-1321.459594726563	48.46327972412111	965.729187011719	-1278.532958984375	288.7716064453126	1048.433715820313	-1300.62939453125	279.7920532226563	1052.915161132813	-1365.918823242188	369.1964721679688	1069.868896484375	-1310.951049804688	-166.9307250976563	1098.921997070313	-874.821716308594	-51.79878234863283	1031.040405273438	-775.3552856445315	-17.05292510986328	1059.446899414063	-795.4710693359377	16.52259254455567	1016.3935546875	-767.1253662109376	84.77061462402345	1013.585144042969	-767.0921630859376	85.32363891601564	961.882507324219	-825.0820922851565	327.6511840820313	1022.928283691406	-831.598083496094	321.9103393554688	1020.865783691406	-765.6259155273439	403.7421264648439	1040.19970703125	-820.9691162109377	-364.0377197265626	707.4194946289064	-1119.809936523438	-373.3533935546876	664.6748046875001	-906.859558105469	-487.5192871093751	820.5582275390627	-998.483093261719	-510.9703979492189	803.9199218750002	-1029.160522460938	-509.0068664550782	793.728942871094	-972.8413085937502	-400.0851135253907	624.8676147460939	-1202.22802734375	-322.5259704589844	593.7335205078126	-1196.87060546875	-292.7501525878907	624.4835205078126	-1172.996215820313	-304.0353698730469	534.2016601562501	-1191.421997070313	-197.3181610107422	420.7606506347657	-1156.78076171875	-187.6120300292969	437.120819091797	-1046.174682617188	-207.1629028320313	298.6520385742188	-1052.495361328125	-246.1272735595704	239.4353332519532	-1107.193725585938	-221.1097106933594	243.452377319336	-1066.359375	-273.8102416992188	195.0931091308594	-1022.359130859375	-378.2398681640626	105.0816879272461	-1058.473876953125	-349.1336364746094	121.4151077270508	-978.5192871093752	-441.0050659179689	96.14738464355472	-1007.256530761719	-239.4400939941407	51.57837295532228	-991.0105590820315	-234.7232818603516	49.86492156982423	-1030.418823242188	-259.1817321777344	44.20175933837891	-1079.89111328125	-482.9480895996095	443.4689331054689	-862.0238037109377	-450.8785400390626	382.9915771484376	-868.3150634765627	-417.8716735839845	381.2282104492188	-879.2061767578127	-490.1870727539064	312.1004638671876	-889.6832275390627	-499.3544006347657	271.9430847167969	-902.0618286132815	-491.6430053710939	270.4128112792969	-1016.204895019531	-612.2346801757814	214.8919372558594	-935.6901855468752	-693.0277709960939	282.8224792480469	-909.6079711914065	-695.0009765625001	238.5743408203126	-923.5776367187502	-738.0547485351564	230.0497436523438	-963.9912109375002	-877.217956542969	288.0506896972657	-935.5994873046877	-855.4035644531252	273.8344421386719	-1017.853454589844	-888.698913574219	352.2135009765626	-974.2215576171877	-930.7957763671877	158.9636383056641	-1032.713623046875	-935.1301879882815	144.7046203613282	-987.5900878906252	-957.4792480468752	168.2475280761719	-934.1107177734377	
